<mxfile host="app.diagrams.net" modified="2024-04-07T10:05:02.787Z" agent="Mozilla/5.0 (Windows NT 10.0; Win64; x64) AppleWebKit/537.36 (KHTML, like Gecko) Chrome/123.0.0.0 Safari/537.36" etag="eBMH9uPUNaRCUojsyxcN" version="24.2.2" type="github">
  <diagram id="4WrrA60eO3FQtE-Gk-CR" name="第 1 页">
    <mxGraphModel dx="2074" dy="1140" grid="1" gridSize="10" guides="1" tooltips="1" connect="1" arrows="1" fold="1" page="1" pageScale="1" pageWidth="1654" pageHeight="2336" math="0" shadow="0">
      <root>
        <mxCell id="0" />
        <mxCell id="1" parent="0" />
        <mxCell id="8BI5hf49d6qzXUyqPjOA-1" value="&lt;font style=&quot;font-size: 24px&quot;&gt;O&lt;/font&gt;" style="ellipse;whiteSpace=wrap;html=1;aspect=fixed;strokeWidth=2;" parent="1" vertex="1">
          <mxGeometry x="218" y="210" width="80" height="80" as="geometry" />
        </mxCell>
        <mxCell id="8BI5hf49d6qzXUyqPjOA-2" value="&lt;font style=&quot;font-size: 24px&quot;&gt;S&lt;/font&gt;" style="ellipse;whiteSpace=wrap;html=1;aspect=fixed;strokeWidth=2;" parent="1" vertex="1">
          <mxGeometry x="218" y="350" width="80" height="80" as="geometry" />
        </mxCell>
        <mxCell id="8BI5hf49d6qzXUyqPjOA-3" value="&lt;font style=&quot;font-size: 24px&quot;&gt;X&lt;/font&gt;" style="ellipse;whiteSpace=wrap;html=1;aspect=fixed;strokeWidth=2;" parent="1" vertex="1">
          <mxGeometry x="218" y="490" width="80" height="80" as="geometry" />
        </mxCell>
        <mxCell id="8BI5hf49d6qzXUyqPjOA-4" value="V" style="endArrow=classic;html=1;strokeWidth=2;exitX=0.5;exitY=0;exitDx=0;exitDy=0;fontSize=18;" parent="1" source="8BI5hf49d6qzXUyqPjOA-2" edge="1">
          <mxGeometry width="50" height="50" relative="1" as="geometry">
            <mxPoint x="248" y="350" as="sourcePoint" />
            <mxPoint x="258" y="290" as="targetPoint" />
          </mxGeometry>
        </mxCell>
        <mxCell id="8BI5hf49d6qzXUyqPjOA-5" value="U" style="endArrow=classic;html=1;fontSize=18;strokeWidth=2;entryX=0.5;entryY=1;entryDx=0;entryDy=0;exitX=0.5;exitY=0;exitDx=0;exitDy=0;" parent="1" source="8BI5hf49d6qzXUyqPjOA-3" target="8BI5hf49d6qzXUyqPjOA-2" edge="1">
          <mxGeometry width="50" height="50" relative="1" as="geometry">
            <mxPoint x="238" y="480" as="sourcePoint" />
            <mxPoint x="288" y="430" as="targetPoint" />
          </mxGeometry>
        </mxCell>
        <mxCell id="8BI5hf49d6qzXUyqPjOA-6" value="W" style="rounded=0;whiteSpace=wrap;html=1;fontSize=18;strokeWidth=2;" parent="1" vertex="1">
          <mxGeometry x="348" y="360" width="120" height="60" as="geometry" />
        </mxCell>
        <mxCell id="8BI5hf49d6qzXUyqPjOA-8" value="" style="curved=1;endArrow=classic;html=1;fontSize=18;strokeWidth=2;entryX=0.5;entryY=1;entryDx=0;entryDy=0;exitX=0.5;exitY=1;exitDx=0;exitDy=0;" parent="1" source="8BI5hf49d6qzXUyqPjOA-2" target="8BI5hf49d6qzXUyqPjOA-6" edge="1">
          <mxGeometry width="50" height="50" relative="1" as="geometry">
            <mxPoint x="318" y="500" as="sourcePoint" />
            <mxPoint x="368" y="450" as="targetPoint" />
            <Array as="points">
              <mxPoint x="278" y="480" />
              <mxPoint x="388" y="480" />
            </Array>
          </mxGeometry>
        </mxCell>
        <mxCell id="8BI5hf49d6qzXUyqPjOA-9" value="" style="curved=1;endArrow=classic;html=1;fontSize=18;strokeWidth=2;exitX=0.5;exitY=0;exitDx=0;exitDy=0;" parent="1" source="8BI5hf49d6qzXUyqPjOA-6" edge="1">
          <mxGeometry width="50" height="50" relative="1" as="geometry">
            <mxPoint x="338" y="350" as="sourcePoint" />
            <mxPoint x="258" y="350" as="targetPoint" />
            <Array as="points">
              <mxPoint x="398" y="310" />
              <mxPoint x="288" y="300" />
            </Array>
          </mxGeometry>
        </mxCell>
        <mxCell id="8BI5hf49d6qzXUyqPjOA-11" value="" style="html=1;shadow=0;dashed=0;align=center;verticalAlign=middle;shape=mxgraph.arrows2.arrow;dy=0.6;dx=40;notch=0;fontSize=18;strokeWidth=2;" parent="1" vertex="1">
          <mxGeometry x="478" y="380" width="100" height="20" as="geometry" />
        </mxCell>
        <mxCell id="8BI5hf49d6qzXUyqPjOA-13" value="Unfold" style="text;html=1;align=center;verticalAlign=middle;resizable=0;points=[];autosize=1;strokeColor=none;fontSize=18;" parent="1" vertex="1">
          <mxGeometry x="475" y="395" width="70" height="30" as="geometry" />
        </mxCell>
        <mxCell id="8BI5hf49d6qzXUyqPjOA-14" value="" style="ellipse;whiteSpace=wrap;html=1;aspect=fixed;strokeWidth=2;" parent="1" vertex="1">
          <mxGeometry x="671" y="350" width="80" height="80" as="geometry" />
        </mxCell>
        <mxCell id="8BI5hf49d6qzXUyqPjOA-15" value="" style="ellipse;whiteSpace=wrap;html=1;aspect=fixed;strokeWidth=2;" parent="1" vertex="1">
          <mxGeometry x="671" y="210" width="80" height="80" as="geometry" />
        </mxCell>
        <mxCell id="8BI5hf49d6qzXUyqPjOA-17" value="V" style="endArrow=classic;html=1;strokeWidth=2;exitX=0.5;exitY=0;exitDx=0;exitDy=0;fontSize=18;entryX=0.5;entryY=1;entryDx=0;entryDy=0;" parent="1" source="8BI5hf49d6qzXUyqPjOA-14" target="8BI5hf49d6qzXUyqPjOA-15" edge="1">
          <mxGeometry width="50" height="50" relative="1" as="geometry">
            <mxPoint x="321" y="370" as="sourcePoint" />
            <mxPoint x="321" y="310" as="targetPoint" />
          </mxGeometry>
        </mxCell>
        <mxCell id="8BI5hf49d6qzXUyqPjOA-18" value="U" style="endArrow=classic;html=1;fontSize=18;strokeWidth=2;entryX=0.5;entryY=1;entryDx=0;entryDy=0;" parent="1" target="8BI5hf49d6qzXUyqPjOA-14" edge="1">
          <mxGeometry width="50" height="50" relative="1" as="geometry">
            <mxPoint x="711" y="500" as="sourcePoint" />
            <mxPoint x="311" y="440" as="targetPoint" />
          </mxGeometry>
        </mxCell>
        <mxCell id="8BI5hf49d6qzXUyqPjOA-20" value="" style="endArrow=classic;html=1;fontSize=18;strokeWidth=2;" parent="1" edge="1">
          <mxGeometry width="50" height="50" relative="1" as="geometry">
            <mxPoint x="598" y="389.5" as="sourcePoint" />
            <mxPoint x="658" y="389.5" as="targetPoint" />
            <Array as="points">
              <mxPoint x="628" y="389.5" />
            </Array>
          </mxGeometry>
        </mxCell>
        <mxCell id="8BI5hf49d6qzXUyqPjOA-25" value="W" style="text;html=1;align=center;verticalAlign=middle;resizable=0;points=[];autosize=1;strokeColor=none;fontSize=18;" parent="1" vertex="1">
          <mxGeometry x="608" y="360" width="30" height="30" as="geometry" />
        </mxCell>
        <mxCell id="8BI5hf49d6qzXUyqPjOA-26" value="" style="ellipse;whiteSpace=wrap;html=1;aspect=fixed;strokeWidth=2;" parent="1" vertex="1">
          <mxGeometry x="841" y="350" width="80" height="80" as="geometry" />
        </mxCell>
        <mxCell id="8BI5hf49d6qzXUyqPjOA-27" value="" style="ellipse;whiteSpace=wrap;html=1;aspect=fixed;strokeWidth=2;" parent="1" vertex="1">
          <mxGeometry x="841" y="210" width="80" height="80" as="geometry" />
        </mxCell>
        <mxCell id="8BI5hf49d6qzXUyqPjOA-28" value="V" style="endArrow=classic;html=1;strokeWidth=2;exitX=0.5;exitY=0;exitDx=0;exitDy=0;fontSize=18;entryX=0.5;entryY=1;entryDx=0;entryDy=0;" parent="1" source="8BI5hf49d6qzXUyqPjOA-26" target="8BI5hf49d6qzXUyqPjOA-27" edge="1">
          <mxGeometry width="50" height="50" relative="1" as="geometry">
            <mxPoint x="491" y="370" as="sourcePoint" />
            <mxPoint x="491" y="310" as="targetPoint" />
          </mxGeometry>
        </mxCell>
        <mxCell id="8BI5hf49d6qzXUyqPjOA-29" value="U" style="endArrow=classic;html=1;fontSize=18;strokeWidth=2;entryX=0.5;entryY=1;entryDx=0;entryDy=0;" parent="1" target="8BI5hf49d6qzXUyqPjOA-26" edge="1">
          <mxGeometry width="50" height="50" relative="1" as="geometry">
            <mxPoint x="881" y="500" as="sourcePoint" />
            <mxPoint x="481" y="440" as="targetPoint" />
          </mxGeometry>
        </mxCell>
        <mxCell id="8BI5hf49d6qzXUyqPjOA-30" value="" style="endArrow=classic;html=1;fontSize=18;strokeWidth=2;" parent="1" edge="1">
          <mxGeometry width="50" height="50" relative="1" as="geometry">
            <mxPoint x="768" y="389.5" as="sourcePoint" />
            <mxPoint x="828" y="389.5" as="targetPoint" />
            <Array as="points">
              <mxPoint x="798" y="389.5" />
            </Array>
          </mxGeometry>
        </mxCell>
        <mxCell id="8BI5hf49d6qzXUyqPjOA-31" value="W" style="text;html=1;align=center;verticalAlign=middle;resizable=0;points=[];autosize=1;strokeColor=none;fontSize=18;" parent="1" vertex="1">
          <mxGeometry x="778" y="360" width="30" height="30" as="geometry" />
        </mxCell>
        <mxCell id="8BI5hf49d6qzXUyqPjOA-32" value="" style="ellipse;whiteSpace=wrap;html=1;aspect=fixed;strokeWidth=2;" parent="1" vertex="1">
          <mxGeometry x="1011" y="350" width="80" height="80" as="geometry" />
        </mxCell>
        <mxCell id="8BI5hf49d6qzXUyqPjOA-33" value="" style="ellipse;whiteSpace=wrap;html=1;aspect=fixed;strokeWidth=2;" parent="1" vertex="1">
          <mxGeometry x="1011" y="210" width="80" height="80" as="geometry" />
        </mxCell>
        <mxCell id="8BI5hf49d6qzXUyqPjOA-34" value="V" style="endArrow=classic;html=1;strokeWidth=2;exitX=0.5;exitY=0;exitDx=0;exitDy=0;fontSize=18;entryX=0.5;entryY=1;entryDx=0;entryDy=0;" parent="1" source="8BI5hf49d6qzXUyqPjOA-32" target="8BI5hf49d6qzXUyqPjOA-33" edge="1">
          <mxGeometry width="50" height="50" relative="1" as="geometry">
            <mxPoint x="661" y="370" as="sourcePoint" />
            <mxPoint x="661" y="310" as="targetPoint" />
          </mxGeometry>
        </mxCell>
        <mxCell id="8BI5hf49d6qzXUyqPjOA-35" value="U" style="endArrow=classic;html=1;fontSize=18;strokeWidth=2;entryX=0.5;entryY=1;entryDx=0;entryDy=0;" parent="1" target="8BI5hf49d6qzXUyqPjOA-32" edge="1">
          <mxGeometry width="50" height="50" relative="1" as="geometry">
            <mxPoint x="1051" y="500" as="sourcePoint" />
            <mxPoint x="651" y="440" as="targetPoint" />
          </mxGeometry>
        </mxCell>
        <mxCell id="8BI5hf49d6qzXUyqPjOA-36" value="" style="endArrow=classic;html=1;fontSize=18;strokeWidth=2;" parent="1" edge="1">
          <mxGeometry width="50" height="50" relative="1" as="geometry">
            <mxPoint x="938" y="389.5" as="sourcePoint" />
            <mxPoint x="998" y="389.5" as="targetPoint" />
            <Array as="points">
              <mxPoint x="968" y="389.5" />
            </Array>
          </mxGeometry>
        </mxCell>
        <mxCell id="8BI5hf49d6qzXUyqPjOA-37" value="W" style="text;html=1;align=center;verticalAlign=middle;resizable=0;points=[];autosize=1;strokeColor=none;fontSize=18;" parent="1" vertex="1">
          <mxGeometry x="948" y="360" width="30" height="30" as="geometry" />
        </mxCell>
        <mxCell id="8BI5hf49d6qzXUyqPjOA-38" value="" style="endArrow=classic;html=1;fontSize=18;strokeWidth=2;" parent="1" edge="1">
          <mxGeometry width="50" height="50" relative="1" as="geometry">
            <mxPoint x="1108" y="389" as="sourcePoint" />
            <mxPoint x="1168" y="389" as="targetPoint" />
            <Array as="points">
              <mxPoint x="1138" y="389" />
            </Array>
          </mxGeometry>
        </mxCell>
        <mxCell id="8BI5hf49d6qzXUyqPjOA-39" value="W" style="text;html=1;align=center;verticalAlign=middle;resizable=0;points=[];autosize=1;strokeColor=none;fontSize=18;" parent="1" vertex="1">
          <mxGeometry x="1118" y="359.5" width="30" height="30" as="geometry" />
        </mxCell>
        <mxCell id="XToDsAciy-fmTWs8Hy-9-2" value="输出层" style="text;html=1;align=center;verticalAlign=middle;resizable=0;points=[];autosize=1;strokeColor=none;fillColor=none;fontSize=15;" vertex="1" parent="1">
          <mxGeometry x="110" y="240" width="70" height="30" as="geometry" />
        </mxCell>
        <mxCell id="XToDsAciy-fmTWs8Hy-9-3" value="隐藏层" style="text;html=1;align=center;verticalAlign=middle;resizable=0;points=[];autosize=1;strokeColor=none;fillColor=none;fontSize=15;" vertex="1" parent="1">
          <mxGeometry x="110" y="375" width="70" height="30" as="geometry" />
        </mxCell>
        <mxCell id="XToDsAciy-fmTWs8Hy-9-4" value="输入层" style="text;html=1;align=center;verticalAlign=middle;resizable=0;points=[];autosize=1;strokeColor=none;fillColor=none;fontSize=15;" vertex="1" parent="1">
          <mxGeometry x="110" y="520" width="70" height="30" as="geometry" />
        </mxCell>
      </root>
    </mxGraphModel>
  </diagram>
</mxfile>
